<svg width="392" height="583" viewBox="0 0 392 583" fill="none" xmlns="http://www.w3.org/2000/svg">
<path d="M253.546 496.917C210.947 505.47 185.648 508.003 137.149 494.146C132.669 492.866 128.617 491.483 124.94 489.989C127.706 517.815 131.283 522.891 149.535 530.174C175.491 537.294 189.72 540.784 235.448 532.945C263.879 528.071 263.319 516.859 263.879 494.146C260.67 495.173 257.233 496.097 253.546 496.917Z" fill="#5872B6" stroke="black" stroke-width="8.31409"/>
<path d="M145.726 494.146C145.185 509.468 146.286 517.596 149.883 531.559M162.354 499.689C162.002 514.264 163.062 522.459 166.511 537.102M180.498 502.46C179.321 518.038 179.884 523.578 184.655 537.102M242.854 495.532C243.395 510.853 242.294 518.982 238.697 532.945M224.84 499.689C225.192 514.264 224.132 522.459 220.683 537.102M205.31 502.46C206.487 518.038 205.924 523.578 201.153 537.102" stroke="black" stroke-width="5.54273"/>
<path d="M71.5917 347.642C71.1121 343.308 70.6649 339.123 70.2607 335.171C69.5056 327.79 68.9481 320.394 68.5784 313C13.5998 356.532 1.55831 387.879 5.76733 459.379C5.76733 470.761 7.54638 486.437 7.98174 496.879C10.7544 563.379 20.505 570.808 28.7976 574.894C42.8605 581.822 66.0738 552.568 108.96 486.428C94.396 474.998 89.6821 459.235 84.0817 437.711C83.6848 436.186 83.2053 433.821 82.6637 430.783C79.7011 414.162 74.8828 377.387 71.5917 347.642Z" fill="#FBC114" stroke="black" stroke-width="8.31409"/>
<path d="M108.96 486.428C66.0739 552.568 42.8606 581.823 28.7977 574.894C24.568 572.81 19.9568 567.805 16.4536 555.495C39.8215 555.495 67.8083 511.612 95.7635 470.968C99.0862 476.839 103.272 481.964 108.96 486.428Z" fill="white"/>
<path d="M84.0818 437.712C83.6849 436.186 83.2054 433.822 82.6638 430.783M28.7977 574.894C42.8606 581.823 66.0739 552.568 108.96 486.428C103.272 481.964 99.0862 476.839 95.7635 470.968C67.8083 511.612 39.8215 555.495 16.4536 555.495C19.9568 567.805 24.568 572.81 28.7977 574.894Z" stroke="black" stroke-width="5.54273"/>
<path d="M313.345 422.09C312.796 424.394 312.234 426.704 311.656 429.019C305.674 453.014 298.835 471.241 280.138 483.06C321.495 556.501 341.173 582.829 356.635 577.287C367.364 573.44 375.443 539.873 379.66 494.146C380.299 487.217 383.275 469.117 386.152 437.333C391.07 383 374.907 354.192 329.584 312.621C329.025 322.441 328.208 332.425 327.118 342.561C324.365 368.148 319.864 394.712 313.345 422.09Z" fill="#FBC114" stroke="black" stroke-width="8.31409"/>
<path d="M280.137 483.06C321.494 556.502 341.172 582.83 356.633 577.287C362.221 575.284 367.09 565.219 371.069 549.573C351.821 549.573 322.51 509.146 299.815 462.158C295.12 470.503 288.944 477.493 280.137 483.06Z" fill="white" stroke="black" stroke-width="5.54273"/>
<path d="M68.9852 333.407C52.4991 172.668 129.955 5 200.625 5C271.295 5 373.835 187.91 312.865 435.947C304.602 469.564 294.683 491.861 253.281 501.074C210.682 509.626 185.382 512.16 136.884 498.303C97.5213 487.056 91.1561 467.818 82.842 435.947C79.9501 424.862 72.6803 369.434 68.9852 333.407Z" fill="#FBC114" stroke="black" stroke-width="8.31409"/>
<path d="M81.4452 427.633C78.4749 411.012 73.6441 374.237 70.3445 344.492C71.767 351.553 82.166 357.922 98.0581 363.174C160.144 383.692 306.067 387.153 328.133 348.104C325.418 373.692 320.981 400.255 314.555 427.633C303.887 473.079 159.993 477.537 103.601 450.172C91.2153 444.162 83.0506 436.617 81.4452 427.633Z" fill="#5872B6" stroke="black" stroke-width="8.31409"/>
<path d="M99.4436 363.892C96.6722 393.709 107.758 438.718 111.915 452.575M125.772 371.538C124.386 408.951 128.543 439.436 135.471 457.45M153.485 374.309C151.443 408.464 152.872 428.96 159.028 462.993M178.427 378.466C177.831 414.914 179.124 435.308 185.356 465.764M294.825 371.538C294.825 402.023 286.511 442.208 280.968 456.065M269.883 377.081C270.821 414.508 265.94 442.292 258.797 460.222M242.169 379.266C243.803 413.442 239.031 431.807 232.469 465.764M216.883 379.266C217.045 415.718 214.122 435.384 207.527 465.764M75.887 391.605C126.186 431.79 274.04 437.333 321.153 395.762" stroke="black" stroke-width="5.54273"/>
<circle cx="201.153" cy="200.381" r="90.0693" fill="black"/>
<circle cx="201.152" cy="200.381" r="81.7552" fill="white"/>
<circle cx="201.152" cy="200.381" r="73.4412" fill="black"/>
<path d="M207.421 149.111H192.748L171.628 198.72C179.086 194.034 183.469 191.642 191.762 187.93L200.052 168.191L206.368 182.863C212.646 181.073 215.833 180.481 221.238 179.771L207.421 149.111Z" fill="white"/>
<path d="M227.093 194.904C221.341 194.832 217.758 194.559 211.961 195.693L230.515 240.566H247.095L227.093 194.904Z" fill="white"/>
<path d="M153.666 240.566H170.115L185.708 202.602C179.036 205.041 174.574 207.275 165.444 212.669L153.666 240.566Z" fill="white"/>
<path d="M226.765 192.469C206.302 191.417 178.866 197.47 138.797 227.867C173.734 192.469 209.987 179.442 247.622 180.626L226.765 192.469Z" fill="#FBC114"/>
</svg>
