<svg width="248" height="368" viewBox="0 0 248 368" fill="none" xmlns="http://www.w3.org/2000/svg">
<path d="M161.285 313.775C134.373 319.178 118.39 320.778 87.75 312.024C84.9199 311.215 82.3598 310.341 80.0371 309.398C81.784 326.977 84.0443 330.184 95.5753 334.785C111.973 339.284 120.963 341.488 149.851 336.536C167.813 333.457 167.46 326.373 167.813 312.024C165.786 312.673 163.615 313.257 161.285 313.775Z" fill="#5872B6" stroke="black" stroke-width="5.25253"/>
<path d="M93.1686 312.024C92.8268 321.704 93.5226 326.839 95.7949 335.66M103.674 315.526C103.451 324.734 104.121 329.911 106.3 339.162M115.136 317.277C114.393 327.118 114.749 330.618 117.763 339.162M154.53 312.899C154.872 322.579 154.177 327.715 151.904 336.536M143.15 315.526C143.373 324.734 142.703 329.911 140.524 339.162M130.812 317.277C131.555 327.118 131.199 330.618 128.185 339.162" stroke="black" stroke-width="3.50169"/>
<path d="M45.0088 219.229C44.705 216.491 44.4218 213.847 44.1657 211.351C43.6875 206.687 43.3343 202.015 43.1002 197.344C8.27682 224.845 -1.40963 246.367 4.71832 289.263C5.59372 297.142 6.46913 305.896 6.46913 312.9C6.46913 350.543 12.6506 360.217 17.9031 362.799C26.8105 367.176 41.5138 348.694 68.6776 306.909C59.453 299.688 56.4673 289.73 52.92 276.132C52.6686 275.168 52.3648 273.674 52.0218 271.755C50.1453 261.254 47.0934 238.021 45.0088 219.229Z" fill="#FBC114" stroke="black" stroke-width="5.25253"/>
<path d="M68.6777 306.909C41.5139 348.694 26.8106 367.176 17.9032 362.798C15.2241 361.482 12.3034 358.32 10.0845 350.543C24.8857 350.543 42.6125 322.819 60.3193 297.142C62.4239 300.851 65.0749 304.089 68.6777 306.909Z" fill="white"/>
<path d="M52.9201 276.132C52.6687 275.168 52.365 273.674 52.0219 271.755M17.9032 362.798C26.8106 367.176 41.5139 348.694 68.6777 306.909C65.0749 304.089 62.4239 300.851 60.3193 297.142C42.6125 322.819 24.8857 350.543 10.0845 350.543C12.3034 358.32 15.2241 361.482 17.9032 362.798Z" stroke="black" stroke-width="3.50169"/>
<path d="M198.766 266.502C198.425 267.958 198.074 269.417 197.715 270.879C193.989 286.038 189.729 297.554 178.085 305.021C203.843 351.418 216.099 368.051 225.728 364.549C232.41 362.12 237.442 340.913 240.069 312.024C240.467 307.647 241.83 294.516 244.112 276.132C247.915 245.492 237.109 223.606 208.88 197.344C208.532 203.548 208.024 209.855 207.344 216.258C205.63 232.424 202.827 249.205 198.766 266.502Z" fill="#FBC114" stroke="black" stroke-width="5.25253"/>
<path d="M178.084 305.021C203.842 351.418 216.098 368.051 225.728 364.549C229.208 363.284 232.241 356.925 234.719 347.041C222.731 347.041 204.476 321.501 190.34 291.816C187.416 297.087 183.57 301.503 178.084 305.021Z" fill="white" stroke="black" stroke-width="3.50169"/>
<path d="M44.6867 210.475C34.2715 108.926 83.2053 3 127.852 3C172.498 3 237.28 118.556 198.761 275.256C193.541 296.494 187.274 310.581 161.118 316.401C134.205 321.804 118.222 323.405 87.5824 314.65C62.7148 307.545 58.6935 295.391 53.4409 275.256C51.614 268.253 47.0212 233.236 44.6867 210.475Z" fill="#FBC114" stroke="black" stroke-width="5.25253"/>
<path d="M52.5587 270.004C50.6822 259.503 47.6302 236.27 45.5457 217.478C46.4443 221.939 53.014 225.963 63.0541 229.281C102.278 242.243 194.466 244.43 208.407 219.76C206.692 235.925 203.889 252.707 199.829 270.004C193.089 298.715 102.183 301.531 66.5558 284.243C58.731 280.446 53.5729 275.679 52.5587 270.004Z" fill="#5872B6" stroke="black" stroke-width="5.25253"/>
<path d="M63.9295 229.734C62.1787 248.572 69.1821 277.007 71.8083 285.761M80.5626 234.565C79.6871 258.201 82.3134 277.461 86.6905 288.841M98.071 236.316C96.7806 257.893 97.6836 270.842 101.573 292.343M113.829 238.942C113.452 261.969 114.269 274.852 118.206 294.094M187.364 234.565C187.364 253.824 182.112 279.212 178.61 287.966M171.606 238.067C172.199 261.712 169.116 279.265 164.603 290.592M154.098 239.447C155.131 261.039 152.116 272.641 147.97 294.094M138.124 239.447C138.225 262.477 136.379 274.901 132.212 294.094M49.0474 247.243C80.8246 272.63 174.233 276.132 203.997 249.869" stroke="black" stroke-width="3.50169"/>
<circle cx="128.185" cy="126.435" r="56.9024" fill="black"/>
<circle cx="128.185" cy="126.435" r="51.6499" fill="white"/>
<circle cx="128.185" cy="126.434" r="46.3974" fill="black"/>
<path d="M132.145 94.0439H122.876L109.533 125.385C114.244 122.425 117.014 120.913 122.252 118.568L127.49 106.098L131.48 115.368C135.446 114.237 137.46 113.863 140.874 113.414L132.145 94.0439Z" fill="white"/>
<path d="M144.574 122.974C140.94 122.929 138.676 122.757 135.013 123.473L146.735 151.822H157.21L144.574 122.974Z" fill="white"/>
<path d="M98.1853 151.822H108.577L118.428 127.838C114.213 129.379 111.394 130.79 105.626 134.197L98.1853 151.822Z" fill="white"/>
<path d="M144.366 121.436C131.439 120.771 114.105 124.595 88.7913 143.799C110.863 121.436 133.767 113.206 157.543 113.954L144.366 121.436Z" fill="#FBC114"/>
</svg>
